<?xml version="1.0" encoding="utf-8"?>
<!-- Generator: Adobe Illustrator 24.3.0, SVG Export Plug-In . SVG Version: 6.00 Build 0)  -->
<svg version="1.1" id="Layer_1" xmlns="http://www.w3.org/2000/svg" xmlns:xlink="http://www.w3.org/1999/xlink" x="0px" y="0px"
	 viewBox="0 0 1600 1600" style="enable-background:new 0 0 1600 1600;" xml:space="preserve">
<g>
	<path d="M666,500.2c-180.8,0-341.9,84.6-445.6,216.4c-27.7,61.3-43.3,129.2-43.3,200.9c0,269.8,218.9,488.5,488.9,488.5
		s488.9-218.7,488.9-488.5c0-71.6-15.6-139.6-43.3-200.9C1007.9,584.8,846.8,500.2,666,500.2z"/>
	<path d="M174.9,9.3h802.4v131.2l194.2-0.9c257.4,170.2,423.2,465.7,412.5,796.5c0,0.4,0,0.7-0.1,1.1c0,0,0,0,0,0
		c0,1.6,0,3.1-0.1,4.7c-2.1,30.9-28.9,54.3-59.8,52.2c-31-2.1-54.4-28.8-52.3-59.8c0-0.1,0-0.2,0-0.3c0,0-0.1,0-0.1,0
		c0-0.5,0.1-1.1,0.1-1.6c9.1-282.2-126.2-531.5-341.3-682.7H977.3v72.9H393.7L174.9,9.3z"/>
	<path d="M1169.3,683c31.2,69,48.8,145.6,48.8,226.3c0,303.9-246.6,550.2-550.7,550.2s-550.7-246.4-550.7-550.2
		c0-80.7,17.5-157.2,48.8-226.3C79.9,791.5,29,928.3,29,1076.9c0,30.1,2.1,59.7,6.2,88.7c101.4,249.3,346.2,425.1,632.1,425.1
		s530.7-175.8,632.1-425.1c4-29,6.2-58.6,6.2-88.7C1305.6,928.3,1254.6,791.5,1169.3,683z"/>
</g>
</svg>
